REM DIRINDEX 1\2\5,1\2\6,1\2\7,1\2\8,1\3\9,1\3\10,1\3\11,1\4\12,1\4\13,1\4\14,1\4\15,1\4\16
REM DIRNAME cjc034,folder01,folder02,folder03,folder04,folder05,folder06,folder07,folder08,folder09,folder10,folder11,folder12,folder13,folder14,folder15
TITLE ""
FILE "1200_sec04_1381_1390.mp3" MP3
  TRACK 01 AUDIO
    TITLE "0:"
    INDEX 01 00:00:00
  TRACK 02 AUDIO
    TITLE "16:cjc034_09260"
    INDEX 01 00:03:17
  TRACK 03 AUDIO
    TITLE "0:"
    INDEX 01 00:04:46
  TRACK 04 AUDIO
    TITLE "16:cjc034_09261"
    INDEX 01 00:05:18
  TRACK 05 AUDIO
    TITLE "0:"
    INDEX 01 00:07:58
  TRACK 06 AUDIO
    TITLE "12:cjc034_09262"
    INDEX 01 00:08:60
  TRACK 07 AUDIO
    TITLE "0:"
    INDEX 01 00:10:08
  TRACK 08 AUDIO
    TITLE "13:cjc034_09263"
    INDEX 01 00:10:65
  TRACK 09 AUDIO
    TITLE "0:"
    INDEX 01 00:12:24
  TRACK 10 AUDIO
    TITLE "14:cjc034_09264"
    INDEX 01 00:12:58
  TRACK 11 AUDIO
    TITLE "0:"
    INDEX 01 00:14:04
  TRACK 12 AUDIO
    TITLE "15:cjc034_09265"
    INDEX 01 00:14:62
  TRACK 13 AUDIO
    TITLE "0:"
    INDEX 01 00:18:35
  TRACK 14 AUDIO
    TITLE "12:cjc034_09266"
    INDEX 01 00:19:69
  TRACK 15 AUDIO
    TITLE "0:"
    INDEX 01 00:21:29
  TRACK 16 AUDIO
    TITLE "13:cjc034_09267"
    INDEX 01 00:21:60
  TRACK 17 AUDIO
    TITLE "0:"
    INDEX 01 00:28:06
  TRACK 18 AUDIO
    TITLE "14:cjc034_09268"
    INDEX 01 00:28:43
  TRACK 19 AUDIO
    TITLE "0:"
    INDEX 01 00:30:03
  TRACK 20 AUDIO
    TITLE "15:cjc034_09269"
    INDEX 01 00:30:36
  TRACK 21 AUDIO
    TITLE "0:"
    INDEX 01 00:33:71
  TRACK 22 AUDIO
    TITLE "12:cjc034_09270"
    INDEX 01 00:35:47
  TRACK 23 AUDIO
    TITLE "0:"
    INDEX 01 00:36:66
  TRACK 24 AUDIO
    TITLE "13:cjc034_09271"
    INDEX 01 00:37:44
  TRACK 25 AUDIO
    TITLE "0:"
    INDEX 01 00:40:38
  TRACK 26 AUDIO
    TITLE "14:cjc034_09272"
    INDEX 01 00:41:00
  TRACK 27 AUDIO
    TITLE "0:"
    INDEX 01 00:42:33
  TRACK 28 AUDIO
    TITLE "15:cjc034_09273"
    INDEX 01 00:42:72
  TRACK 29 AUDIO
    TITLE "0:"
    INDEX 01 00:45:55
  TRACK 30 AUDIO
    TITLE "12:cjc034_09274"
    INDEX 01 00:47:34
  TRACK 31 AUDIO
    TITLE "0:"
    INDEX 01 00:48:67
  TRACK 32 AUDIO
    TITLE "13:cjc034_09275"
    INDEX 01 00:49:23
  TRACK 33 AUDIO
    TITLE "0:"
    INDEX 01 00:51:03
  TRACK 34 AUDIO
    TITLE "14:cjc034_09276"
    INDEX 01 00:51:36
  TRACK 35 AUDIO
    TITLE "0:"
    INDEX 01 00:52:67
  TRACK 36 AUDIO
    TITLE "15:cjc034_09277"
    INDEX 01 00:53:25
  TRACK 37 AUDIO
    TITLE "0:"
    INDEX 01 00:57:68
  TRACK 38 AUDIO
    TITLE "12:cjc034_09278"
    INDEX 01 00:59:26
  TRACK 39 AUDIO
    TITLE "0:"
    INDEX 01 01:00:59
  TRACK 40 AUDIO
    TITLE "13:cjc034_09279"
    INDEX 01 01:01:15
  TRACK 41 AUDIO
    TITLE "0:"
    INDEX 01 01:04:07
  TRACK 42 AUDIO
    TITLE "14:cjc034_09280"
    INDEX 01 01:04:39
  TRACK 43 AUDIO
    TITLE "0:"
    INDEX 01 01:05:69
  TRACK 44 AUDIO
    TITLE "15:cjc034_09281"
    INDEX 01 01:06:28
  TRACK 45 AUDIO
    TITLE "0:"
    INDEX 01 01:09:73
  TRACK 46 AUDIO
    TITLE "12:cjc034_09282"
    INDEX 01 01:11:31
  TRACK 47 AUDIO
    TITLE "0:"
    INDEX 01 01:13:51
  TRACK 48 AUDIO
    TITLE "13:cjc034_09283"
    INDEX 01 01:14:14
  TRACK 49 AUDIO
    TITLE "0:"
    INDEX 01 01:16:03
  TRACK 50 AUDIO
    TITLE "14:cjc034_09284"
    INDEX 01 01:16:38
  TRACK 51 AUDIO
    TITLE "0:"
    INDEX 01 01:18:56
  TRACK 52 AUDIO
    TITLE "15:cjc034_09285"
    INDEX 01 01:19:21
  TRACK 53 AUDIO
    TITLE "0:"
    INDEX 01 01:22:44
  TRACK 54 AUDIO
    TITLE "12:cjc034_09286"
    INDEX 01 01:24:00
  TRACK 55 AUDIO
    TITLE "0:"
    INDEX 01 01:28:06
  TRACK 56 AUDIO
    TITLE "13:cjc034_09287"
    INDEX 01 01:28:41
  TRACK 57 AUDIO
    TITLE "0:"
    INDEX 01 01:30:28
  TRACK 58 AUDIO
    TITLE "14:cjc034_09288"
    INDEX 01 01:30:60
  TRACK 59 AUDIO
    TITLE "0:"
    INDEX 01 01:34:69
  TRACK 60 AUDIO
    TITLE "15:cjc034_09289"
    INDEX 01 01:35:27
  TRACK 61 AUDIO
    TITLE "0:"
    INDEX 01 01:39:47
  TRACK 62 AUDIO
    TITLE "12:cjc034_09290"
    INDEX 01 01:41:07
  TRACK 63 AUDIO
    TITLE "0:"
    INDEX 01 01:44:54
  TRACK 64 AUDIO
    TITLE "13:cjc034_09291"
    INDEX 01 01:45:12
  TRACK 65 AUDIO
    TITLE "0:"
    INDEX 01 01:47:17
  TRACK 66 AUDIO
    TITLE "14:cjc034_09292"
    INDEX 01 01:47:52
  TRACK 67 AUDIO
    TITLE "0:"
    INDEX 01 01:51:27
  TRACK 68 AUDIO
    TITLE "15:cjc034_09293"
    INDEX 01 01:51:62
  TRACK 69 AUDIO
    TITLE "0:"
    INDEX 01 01:54:68
  TRACK 70 AUDIO
    TITLE "12:cjc034_09294"
    INDEX 01 01:56:39
  TRACK 71 AUDIO
    TITLE "0:"
    INDEX 01 01:57:66
  TRACK 72 AUDIO
    TITLE "13:cjc034_09295"
    INDEX 01 01:58:27
  TRACK 73 AUDIO
    TITLE "0:"
    INDEX 01 02:00:67
  TRACK 74 AUDIO
    TITLE "14:cjc034_09296"
    INDEX 01 02:01:31
  TRACK 75 AUDIO
    TITLE "0:"
    INDEX 01 02:02:54
  TRACK 76 AUDIO
    TITLE "15:cjc034_09297"
    INDEX 01 02:03:16
  TRACK 77 AUDIO
    TITLE "0:"
    INDEX 01 02:06:14
  TRACK 78 AUDIO
    TITLE "12:cjc034_09298"
    INDEX 01 02:07:45
  TRACK 79 AUDIO
    TITLE "0:"
    INDEX 01 02:09:19
  TRACK 80 AUDIO
    TITLE "13:cjc034_09299"
    INDEX 01 02:09:50
  TRACK 81 AUDIO
    TITLE "0:"
    INDEX 01 02:14:43
  TRACK 82 AUDIO
    TITLE "14:cjc034_09300"
    INDEX 01 02:15:00
  TRACK 83 AUDIO
    TITLE "0:"
    INDEX 01 02:16:48
  TRACK 84 AUDIO
    TITLE "15:cjc034_09301"
    INDEX 01 02:17:06
  TRACK 85 AUDIO
    TITLE "0:"
    INDEX 01 02:20:42
